PathFileType	4	(X/Y/Z)	Star.trc	
DataRate	CameraRate	NumFrames	NumMarkers	Units	OrigDataRate	OrigDataStartFrame	OrigNumFrames	
100.00	100.00	63	6	mm	100.00	696	1362	
Frame#	Time	LThighSuperior			LThighInferior			LThighLateral			LAsis			RAsis			SACR			
		X1	Y1	Z1	X2	Y2	Z2	X3	Y3	Z3	X4	Y4	Z4	X5	Y5	Z5	X6	Y6	Z6	

511	5.100	10.92138	33.64465	952.57184	-93.80462	138.46402	945.37482	8.32907	134.08887	1015.81738	145.65079	69.65362	1015.75909	372.63260	159.97110	953.98157	309.96960	-52.59102	969.66425 
512	5.110	10.76314	35.04868	953.32678	-92.76919	141.01561	947.33405	9.38041	134.85516	1017.63232	145.23015	69.54368	1015.95789	372.48590	159.65588	954.21130	309.32999	-52.63686	969.38831 
513	5.120	10.61465	36.55477	954.01892	-91.77307	143.50594	949.17804	10.39623	135.77603	1019.25183	144.75188	69.53084	1016.18481	372.43945	159.28909	954.44318	308.73651	-52.86305	969.20850 
514	5.130	10.42194	38.09538	954.75153	-90.74721	146.15201	950.99030	11.44662	136.80783	1020.69952	144.39690	69.76201	1016.40308	372.43427	158.89873	954.69720	308.01508	-53.17503	969.10632 
515	5.140	10.13222	39.72379	955.50720	-89.63850	149.14030	952.81006	12.62201	138.00978	1022.08813	144.20717	70.16838	1016.57953	372.41373	158.56964	954.97162	307.03952	-53.42888	968.86737 
516	5.150	9.75379	41.43233	956.19446	-88.42387	152.35773	954.57416	13.92358	139.33206	1023.48138	144.06747	70.50788	1016.70837	372.29327	158.30298	955.24115	305.86505	-53.66888	968.49127 
517	5.160	9.40588	43.23650	956.82288	-87.06700	155.63600	956.20483	15.20406	140.62415	1024.79834	143.86449	70.75290	1016.79828	372.02927	158.03807	955.50134	304.89526	-53.98951	968.20715 
518	5.170	9.16337	45.10514	957.37152	-85.62125	158.99091	957.59692	16.44522	141.91042	1026.02771	143.46268	70.88879	1016.91650	371.69006	157.77313	955.78961	304.16998	-54.28059	967.98737 
519	5.180	8.95637	46.97450	957.80603	-84.07011	162.40840	958.72546	17.82155	143.18089	1027.08203	142.97511	70.91788	1016.96667	371.27704	157.40643	956.05530	303.48099	-54.29671	967.57843 
520	5.190	8.79781	48.97613	958.20673	-82.35110	165.80847	959.73090	19.25784	144.52919	1027.97131	142.46512	70.95461	1016.89459	370.76108	156.85255	956.22943	302.79953	-54.27500	967.08508 
521	5.200	8.73824	51.10597	958.54291	-80.59284	169.22008	960.50757	20.61843	146.11732	1028.76440	141.76009	70.92136	1016.94287	370.33475	156.31499	956.34338	302.02664	-54.66785	966.86578 
522	5.210	8.66716	53.20526	958.83508	-78.88470	172.64650	961.01575	21.96984	147.80556	1029.29871	141.05899	70.80681	1017.05768	370.08691	155.89383	956.44550	301.20972	-55.19737	966.89221 
523	5.220	8.55423	55.28844	959.07904	-77.26163	175.99594	961.51617	23.26380	149.38936	1029.62976	140.49802	70.85046	1017.06091	369.92703	155.51216	956.60492	300.28827	-55.66260	966.95074 
524	5.230	8.44601	57.38345	959.11182	-75.71490	179.28256	961.99976	24.45552	151.01157	1029.89771	139.98314	71.10130	1017.06183	369.79907	155.10832	956.78137	299.12000	-56.03059	966.94061 
525	5.240	8.23894	59.46863	958.98492	-74.02544	182.70190	962.17072	25.57089	152.73056	1030.12646	139.52164	71.31096	1017.07849	369.62762	154.66403	956.92517	297.91669	-56.23114	966.90729 
526	5.250	7.97700	61.58253	958.81445	-72.04985	186.30280	961.98932	26.67466	154.34242	1030.30896	139.01910	71.39607	1016.98969	369.36664	154.23315	957.08240	296.89899	-56.48650	966.95367 
527	5.260	7.80625	63.75231	958.56677	-69.77792	189.87576	961.67993	27.86338	155.96368	1030.39978	138.43970	71.31976	1016.88837	369.00513	153.81400	957.26056	296.05045	-56.85209	967.00165 
528	5.270	7.69838	65.96398	958.23315	-67.31552	193.43733	961.24963	29.10589	157.69974	1030.43982	137.91293	71.07780	1016.89087	368.52188	153.43399	957.47260	295.22766	-57.25606	966.98798 
529	5.280	7.65993	68.13522	957.98004	-64.83025	197.13527	960.58563	30.44319	159.38252	1030.40161	137.45480	70.80364	1016.97180	367.92126	153.15776	957.75787	294.28763	-57.65052	966.93262 
530	5.290	7.61220	70.31536	957.83185	-62.29367	200.85020	959.79871	31.95957	161.17346	1030.19360	137.03326	70.59332	1017.08936	367.28452	152.95560	958.08008	293.20010	-57.99628	966.81604 
531	5.300	7.58536	72.66980	957.50507	-59.66930	204.53569	959.01526	33.58075	163.23767	1029.78650	136.39990	70.64797	1017.14551	366.69046	152.78459	958.31702	292.09735	-58.37257	966.75146 
532	5.310	7.75823	75.15902	956.92114	-56.94930	208.25891	958.08240	35.20634	165.41338	1029.15369	135.24921	71.12649	1017.08429	366.23199	152.21489	958.35236	291.13611	-58.88837	966.83130 
533	5.320	8.02908	77.72756	956.15460	-54.19621	211.99649	956.84467	36.80389	167.68571	1028.31921	135.20351	71.02076	1017.27783	365.91443	151.06563	958.26190	290.35699	-59.36320	966.90924 
534	5.330	8.27281	80.34357	955.26276	-51.46992	215.74333	955.35675	38.38531	170.01370	1027.27576	134.32866	71.48940	1017.16071	365.57458	150.01833	958.25940	289.54547	-59.78498	966.98151 
535	5.340	8.54736	82.94879	954.28229	-48.73980	219.50693	953.46606	39.88583	172.44032	1026.07642	133.40558	71.81254	1016.98657	365.21198	149.27003	958.35828	288.39685	-60.42915	967.13458 
536	5.350	8.81068	85.65401	953.14325	-46.05518	223.24438	951.06818	41.26888	175.09724	1024.75378	132.87799	71.90776	1016.83966	364.93127	148.52989	958.47192	287.10281	-61.07060	967.27228 
537	5.360	8.97544	88.53900	951.80481	-43.43012	226.92598	948.40088	42.62377	177.85477	1023.06409	132.47081	72.14034	1016.65271	364.75208	147.71960	958.57166	285.77954	-61.46092	967.38684 
538	5.370	9.13903	91.47308	950.24451	-40.77569	230.60718	945.43579	43.95554	180.66910	1020.99353	131.97504	72.63177	1016.51813	364.72992	146.88760	958.68292	284.30936	-61.90092	967.55072 
539	5.380	9.38835	94.34985	948.47473	-37.84289	234.36922	941.88837	45.23393	183.53973	1018.68182	131.36473	73.25706	1016.42053	364.94363	146.23666	958.89044	282.97470	-62.50035	967.78491 
540	5.390	9.66435	97.15732	946.48621	-34.67129	238.16800	937.72205	46.43713	186.39923	1015.99127	130.76205	73.78471	1016.25726	365.36911	145.79227	959.18018	281.78619	-63.08215	968.06726 
541	5.400	9.89936	99.97085	944.20276	-31.62541	241.80623	933.22113	47.57090	189.30716	1012.91821	130.12236	74.32222	1016.03284	365.92862	145.34879	959.47052	280.54581	-63.61613	968.31812 
542	5.410	10.07005	102.79216	941.66144	-28.66821	245.20491	928.33075	48.64061	192.33492	1009.62659	129.40651	74.98251	1015.74805	366.46503	144.84747	959.72705	279.23880	-64.05098	968.45557 
543	5.420	10.53009	105.63251	938.74506	-25.62458	248.41811	922.86224	49.62151	195.47858	1006.10626	128.82552	75.62119	1015.37384	365.95184	143.72493	959.54077	277.80933	-64.42841	968.61298 
544	5.430	11.41805	108.61303	935.41974	-22.60194	251.55067	916.93774	50.51513	198.80289	1002.20081	128.32150	76.30850	1014.96576	363.60361	141.42821	958.55530	276.32391	-64.80912	968.88483 
545	5.440	12.13975	111.65906	931.98987	-19.69165	254.61087	910.52393	51.34126	202.40326	997.85675	127.64088	77.16144	1014.53888	363.58377	140.19403	958.53137	274.83511	-65.21899	969.12366 
546	5.450	12.55658	114.61948	928.47406	-16.83034	257.51578	903.64166	52.23832	206.11359	993.07086	126.92126	78.01489	1014.01355	363.68506	139.11322	958.52136	273.29340	-65.76458	969.32428 
547	5.460	13.05182	117.57632	924.80457	-14.06924	260.31711	896.44641	53.28001	209.87257	987.74445	126.43756	79.07549	1013.33197	363.85684	138.11757	958.60712	271.74075	-66.12192	969.39630 
548	5.470	13.65063	120.70715	920.99408	-11.41731	262.99149	888.99176	54.36615	213.87759	982.02002	126.07656	80.33131	1012.47827	364.07413	137.28058	958.77075	270.14655	-66.06586	969.28339 
549	5.480	14.13390	123.87124	916.90466	-8.69995	265.49417	881.25348	55.42696	217.94778	976.09644	125.60912	81.41117	1011.56488	366.61780	137.75769	959.73450	268.43948	-66.07388	969.29645 
550	5.490	14.59278	126.85366	912.46802	-5.96264	267.81573	873.21515	56.46348	221.81894	969.88336	125.03330	82.49317	1010.69440	367.00262	137.08943	959.50433	266.61041	-66.54324	969.69006 
551	5.500	15.13912	129.66040	907.78003	-3.26608	269.90646	864.96735	57.45871	225.54976	963.39746	124.39603	83.72696	1009.73096	366.33914	135.95016	958.98022	264.73856	-67.12433	970.18451 
552	5.510	15.68973	132.29787	902.89386	-0.48491	271.65768	856.43982	58.43471	229.13672	956.74878	123.75867	85.03185	1008.63159	366.17670	135.33003	958.99390	263.02588	-67.17596	970.33142 
553	5.520	16.26951	134.76407	897.85065	2.32875	273.05832	847.53174	59.42062	232.48993	949.79175	122.99996	86.41356	1007.60046	366.06723	135.00960	959.15607	261.52692	-66.70547	970.17767 
554	5.530	16.84332	137.04027	892.71991	5.15332	274.12601	838.46698	60.41640	235.68645	942.48999	122.04839	87.85865	1006.63983	366.27579	134.78363	959.42657	260.14771	-66.09052	969.97498 
555	5.540	17.41149	139.14485	887.49994	7.97674	274.76569	829.28577	61.50763	238.77917	935.00659	121.04367	89.26533	1005.62469	365.80954	134.23175	959.26459	258.75714	-65.53224	969.88000 
556	5.550	18.06116	141.16486	882.17957	10.67625	275.10745	819.90314	62.65663	241.64815	927.40057	120.03836	90.68515	1004.57214	364.81769	133.68735	958.95355	257.29388	-65.00745	969.84106 
557	5.560	18.72450	142.95296	876.77087	13.45958	275.11536	810.50922	63.76396	244.21602	919.61945	119.10291	92.18866	1003.35419	364.81964	133.73401	959.22894	255.69833	-64.35692	969.74670 
558	5.570	19.35670	144.43605	871.27808	16.31408	274.73148	801.18127	64.93137	246.52200	911.67834	118.24924	93.75599	1002.03973	364.74979	133.73158	959.44446	254.01115	-63.74444	969.80847 
559	5.580	19.96625	145.80336	865.67181	18.48977	274.10019	792.05908	66.22774	248.42619	903.77222	117.32127	95.36934	1000.88635	364.14511	133.40286	959.35803	252.41681	-63.35114	970.10901 
560	5.590	20.51580	147.10497	860.04834	20.59057	273.10809	782.87561	67.37341	250.01659	895.78375	116.27137	96.99355	999.88611	363.53854	132.93971	959.23322	250.80666	-62.88446	970.33374 
561	5.600	21.04120	148.30669	854.53589	23.62850	271.70255	773.28979	68.40292	251.86884	887.43665	115.32581	98.79581	998.94666	362.87460	132.34627	959.08496	249.01776	-62.16523	970.40015 
562	5.610	21.62947	149.42616	849.16772	26.38617	270.10440	763.93268	69.92877	253.70299	878.85321	114.54256	100.83279	997.90863	362.13562	132.36096	959.05872	247.26091	-61.35293	970.41827 
563	5.620	21.96319	150.58395	844.14600	28.74608	268.23309	754.75848	71.63914	255.14108	870.30774	113.70240	102.82919	996.77094	361.37851	133.03554	959.13806	245.65887	-60.52365	970.40247 
564	5.630	22.24000	151.72040	839.28583	31.34824	265.95782	745.64459	72.74583	256.77234	861.89661	112.82535	104.77469	995.57892	360.58698	133.32771	959.07849	244.07324	-59.57616	970.39819 
565	5.640	23.34428	152.61572	833.98676	33.76806	263.44748	736.89124	73.20345	256.48019	853.13232	112.00612	107.02912	994.29968	359.80551	133.13753	958.90552	242.56062	-58.61401	970.21954 
566	5.650	23.22053	153.62062	829.36169	36.21412	260.68350	728.18671	74.42218	257.60004	845.20667	111.21774	109.43736	993.11536	359.19861	132.50221	958.70215	240.90056	-57.35978	970.13080 
567	5.660	23.25042	154.54373	824.63940	38.32324	257.74289	719.75458	77.19087	259.71353	837.42688	110.50645	111.62675	991.98907	358.76245	131.81396	958.55890	238.90021	-56.29250	970.14874 
568	5.670	23.66249	155.27681	819.89557	39.77766	254.78696	711.80658	78.46648	259.96570	829.32831	109.79158	113.83287	990.73962	358.46017	131.63510	958.57361	236.81015	-55.43665	970.24805 
569	5.680	24.23861	155.68823	815.15918	41.16159	251.51678	704.09143	79.66727	260.31213	821.34015	109.06339	116.28090	989.56958	358.30002	131.65904	958.69037	234.64603	-54.50921	970.38831 
570	5.690	24.56044	156.06168	810.54279	42.72117	247.65051	696.33270	80.68232	260.48050	813.34998	108.38274	118.80865	988.45477	358.10172	131.50572	958.88531	232.37288	-53.57093	970.41333 
571	5.700	24.58244	156.40167	806.21106	44.20551	243.50377	688.56915	81.59169	260.37555	805.35315	107.72240	121.31701	987.19702	357.64575	131.05351	959.07190	230.27664	-52.70503	970.25031 
572	5.710	24.66796	156.59067	801.97089	45.29474	239.34087	681.15796	82.45743	260.10013	797.36206	107.10376	123.98801	985.85864	357.00000	130.47241	959.11243	228.22813	-51.16643	970.13104 
573	5.720	24.76140	156.83226	797.60938	46.06928	234.96996	673.97382	83.14548	259.63171	789.28577	106.46957	126.84795	984.38855	356.43420	130.03217	959.07782	226.07094	-49.80082	969.82758 
